<svg width="22" height="22" viewBox="0 0 22 22" fill="none" xmlns="http://www.w3.org/2000/svg">
<g id="Promotion">
<path id="Star 1" d="M11 0L12.2045 3.3948L14.3992 0.538379L14.4957 4.13925L17.4656 2.10081L16.4447 5.55528L19.8992 4.53436L17.8608 7.50427L21.4616 7.60081L18.6052 9.79545L22 11L18.6052 12.2045L21.4616 14.3992L17.8608 14.4957L19.8992 17.4656L16.4447 16.4447L17.4656 19.8992L14.4957 17.8608L14.3992 21.4616L12.2045 18.6052L11 22L9.79545 18.6052L7.60081 21.4616L7.50427 17.8608L4.53436 19.8992L5.55528 16.4447L2.10081 17.4656L4.13925 14.4957L0.538379 14.3992L3.3948 12.2045L0 11L3.3948 9.79545L0.538379 7.60081L4.13925 7.50427L2.10081 4.53436L5.55528 5.55528L4.53436 2.10081L7.50427 4.13925L7.60081 0.538379L9.79545 3.3948L11 0Z" fill="#9747FF"/>
<path id="%" d="M6.96204 8.72555V8.25286C6.96204 7.91317 7.03496 7.60418 7.1808 7.32589C7.32664 7.04759 7.54135 6.82455 7.82493 6.65675C8.10851 6.48896 8.45691 6.40506 8.87012 6.40506C9.29549 6.40506 9.64997 6.48896 9.93355 6.65675C10.2212 6.82455 10.4359 7.04759 10.5777 7.32589C10.7235 7.60418 10.7964 7.91317 10.7964 8.25286V8.72555C10.7964 9.05705 10.7235 9.36194 10.5777 9.64024C10.4359 9.91853 10.2232 10.1416 9.93962 10.3094C9.65604 10.4772 9.30562 10.5611 8.88835 10.5611C8.46703 10.5611 8.11256 10.4772 7.82493 10.3094C7.54135 10.1416 7.32664 9.91853 7.1808 9.64024C7.03496 9.36194 6.96204 9.05705 6.96204 8.72555ZM8.12269 8.25286V8.72555C8.12269 8.86879 8.14902 9.00589 8.20169 9.13685C8.2584 9.26372 8.34347 9.36808 8.45691 9.44993C8.57439 9.52769 8.71618 9.56657 8.88228 9.56657C9.05648 9.56657 9.19827 9.52769 9.30765 9.44993C9.41703 9.36808 9.49805 9.26372 9.55071 9.13685C9.60338 9.00589 9.62971 8.86879 9.62971 8.72555V8.25286C9.62971 8.10143 9.60135 7.96228 9.54464 7.83541C9.49197 7.70445 9.40892 7.60009 9.29549 7.52233C9.18611 7.44048 9.04432 7.39956 8.87012 7.39956C8.70808 7.39956 8.57034 7.44048 8.45691 7.52233C8.34347 7.60009 8.2584 7.70445 8.20169 7.83541C8.14902 7.96228 8.12269 8.10143 8.12269 8.25286ZM11.1914 13.7533V13.2806C11.1914 12.945 11.2643 12.638 11.4102 12.3598C11.5601 12.0815 11.7768 11.8584 12.0604 11.6906C12.348 11.5228 12.7005 11.4389 13.1177 11.4389C13.5391 11.4389 13.8915 11.5228 14.1751 11.6906C14.4587 11.8584 14.6734 12.0815 14.8192 12.3598C14.9651 12.638 15.038 12.945 15.038 13.2806V13.7533C15.038 14.0889 14.9651 14.3958 14.8192 14.6741C14.6774 14.9524 14.4647 15.1754 14.1812 15.3432C13.8976 15.511 13.5472 15.5949 13.1299 15.5949C12.7086 15.5949 12.3541 15.511 12.0665 15.3432C11.7788 15.1754 11.5601 14.9524 11.4102 14.6741C11.2643 14.3958 11.1914 14.0889 11.1914 13.7533ZM12.3582 13.2806V13.7533C12.3582 13.9006 12.3906 14.0398 12.4554 14.1707C12.5202 14.3017 12.6093 14.406 12.7228 14.4838C12.8402 14.5616 12.976 14.6004 13.1299 14.6004C13.3244 14.6004 13.4763 14.5616 13.5857 14.4838C13.695 14.406 13.77 14.3017 13.8105 14.1707C13.8551 14.0398 13.8773 13.9006 13.8773 13.7533V13.2806C13.8773 13.1333 13.849 12.9961 13.7923 12.8693C13.7355 12.7383 13.6505 12.634 13.537 12.5562C13.4277 12.4743 13.2879 12.4334 13.1177 12.4334C12.9476 12.4334 12.8058 12.4743 12.6924 12.5562C12.583 12.634 12.4999 12.7383 12.4432 12.8693C12.3865 12.9961 12.3582 13.1333 12.3582 13.2806ZM13.5492 7.81086L9.22865 14.7969L8.37791 14.3426L12.6985 7.35658L13.5492 7.81086Z" fill="white"/>
</g>
</svg>
